<?xml version="1.0" standalone="no"?>
<!DOCTYPE svg PUBLIC "-//W3C//DTD SVG 20010904//EN"
 "http://www.w3.org/TR/2001/REC-SVG-20010904/DTD/svg10.dtd">
<svg version="1.0" xmlns="http://www.w3.org/2000/svg"
 width="300.000000pt" height="120.000000pt" viewBox="0 0 300.000000 120.000000"
 preserveAspectRatio="xMidYMid meet">
<metadata>
Created by potrace 1.10, written by Peter Selinger 2001-2011
</metadata>
<g transform="translate(0.000000,120.000000) scale(0.100000,-0.100000)"
fill="#fff" stroke="none">
<path d="M30 1175 c0 0 -1 -213 -1 -474 l0 -474 55 -1 56 -1 0 476 0 476 -55
-1 c-30 0 -55 -1 -55 -1z m75 -59 c3 -11 4 -208 3 -436 l-3 -415 -25 0 -25 0
-3 423 c-1 275 1 430 8 442 13 24 38 16 45 -14z"/>
<path d="M1027 1166 c-74 -27 -123 -88 -136 -166 -6 -34 -8 -35 -54 -38 -46
-3 -47 -4 -47 -38 0 -34 0 -34 45 -34 l45 0 0 -333 0 -334 53 2 52 2 0 331 0
332 118 0 118 0 -35 -31 c-45 -39 -93 -136 -107 -216 -39 -221 128 -443 332
-443 89 0 149 23 213 81 91 83 148 229 130 332 l-6 41 30 -31 c17 -16 48 -38
69 -48 226 -105 243 -118 243 -187 0 -54 -14 -76 -63 -99 -76 -34 -161 -22
-247 36 -29 19 -54 35 -56 35 -2 0 -4 -27 -4 -59 l0 -59 48 -19 c34 -13 74
-18 142 -18 84 0 102 3 153 28 76 38 109 86 115 168 8 109 -25 148 -201 235
-142 71 -157 85 -157 141 0 81 77 131 178 117 24 -4 55 -16 68 -28 15 -13 64
-118 134 -289 l110 -268 -67 -137 c-37 -75 -69 -140 -71 -144 -2 -5 19 -8 48
-8 l51 0 20 48 c73 168 239 578 239 589 0 22 14 14 35 -20 15 -24 50 -47 145
-94 139 -69 180 -105 180 -157 0 -68 -67 -116 -162 -116 -62 0 -123 26 -185
76 l-43 35 0 -65 0 -66 43 -22 c59 -30 192 -37 273 -13 150 43 212 211 117
315 -23 26 -76 60 -155 100 -146 75 -158 86 -158 145 0 35 6 52 29 77 28 32
32 33 109 33 71 0 84 -3 130 -32 l52 -32 0 55 c0 50 -2 55 -27 66 -16 6 -71
12 -123 12 -85 1 -101 -2 -152 -27 -32 -16 -66 -40 -76 -55 -36 -53 -184 -442
-178 -466 6 -26 -15 -86 -36 -104 -11 -9 -14 -6 -16 12 -1 13 -24 79 -52 147
-28 68 -69 168 -91 222 -41 101 -77 175 -105 215 -16 21 -15 22 4 22 40 0 63
-37 150 -253 48 -119 98 -229 110 -245 l22 -27 -6 30 c-4 17 -50 138 -104 270
l-97 240 -54 12 c-206 43 -379 -31 -379 -164 l0 -38 28 54 c31 62 59 83 41 31
-16 -44 -5 -107 22 -137 13 -13 75 -51 139 -84 132 -69 138 -73 168 -116 23
-33 29 -96 12 -123 -10 -17 -11 -15 -26 55 -11 48 -73 99 -173 141 -36 16 -92
44 -125 63 -56 33 -59 34 -72 16 -8 -10 -14 -37 -14 -59 0 -98 -44 -201 -114
-268 -72 -71 -86 -62 -19 12 12 14 34 57 49 95 23 62 25 80 21 160 -7 133 -28
187 -104 263 -35 34 -71 62 -80 62 -9 0 -14 3 -10 6 3 4 14 3 24 -1 10 -5 27
-10 38 -12 11 -2 22 -8 23 -13 2 -6 9 -10 15 -10 6 0 42 -33 80 -72 67 -72 68
-72 52 -33 -21 56 -120 148 -181 169 -39 13 -92 16 -296 16 l-248 0 0 30 c0
42 24 96 48 109 47 25 159 6 191 -32 23 -29 31 -19 31 37 0 64 -3 66 -110 72
-50 3 -88 0 -113 -10z m-75 -159 c-2 -22 3 -39 17 -56 25 -29 25 -30 5 -53
-15 -15 -17 -55 -18 -316 -1 -164 -6 -303 -10 -310 -6 -10 -11 -10 -22 -1 -11
9 -14 65 -14 312 0 253 -2 303 -15 317 -14 15 -12 23 16 78 34 69 47 78 41 29z
m392 -91 c-3 -8 -19 -20 -35 -26 -40 -17 -97 -82 -125 -144 -59 -130 -33 -330
56 -428 40 -43 38 -60 -2 -22 -77 71 -111 130 -128 222 -18 101 12 214 78 299
35 45 45 70 32 78 -6 4 -10 12 -10 19 0 9 21 14 70 15 58 2 69 0 64 -13z m154
-53 c47 -25 94 -86 122 -160 28 -75 25 -213 -7 -284 -44 -97 -116 -151 -203
-151 -61 1 -95 18 -147 75 -88 96 -108 267 -46 399 60 129 172 177 281 121z
m1094 -73 c-6 -81 18 -108 157 -179 146 -75 200 -126 192 -183 0 -4 -2 -21 -3
-37 -3 -43 -14 -38 -22 9 -10 60 -55 102 -181 164 -60 30 -125 68 -143 85 -18
17 -39 31 -47 31 -33 0 -29 20 28 138 16 35 22 26 19 -28z m25 -548 c-32 -4
-77 21 -77 43 0 12 12 9 53 -12 49 -26 51 -28 24 -31z m-801 23 c21 -11 24
-16 13 -20 -19 -7 -69 11 -69 25 0 14 23 12 56 -5z m455 -159 c-11 -25 -25
-46 -30 -46 -10 0 -3 30 8 40 4 3 12 18 19 34 7 16 15 26 18 24 2 -3 -4 -26
-15 -52z"/>
<path d="M444 937 c-28 -14 -60 -37 -72 -52 l-22 -28 0 47 0 46 -50 0 -50 0 0
-363 0 -364 51 1 51 1 -1 267 c-2 189 1 274 10 290 38 74 126 118 199 98 22
-6 55 -24 73 -40 l32 -28 5 -293 5 -292 53 -2 52 -2 0 291 c0 283 -1 293 -22
336 -14 26 -41 57 -66 75 -38 26 -54 30 -120 33 -65 2 -85 -1 -128 -21z m193
-16 c19 -2 81 -60 96 -91 11 -22 15 -85 16 -287 0 -143 -3 -264 -8 -272 -8
-12 -13 -12 -24 -3 -12 10 -15 57 -16 255 -1 133 -4 257 -7 274 -9 47 -117
136 -139 115 -5 -4 -5 -2 -2 4 6 10 24 11 84 5z m-312 -28 c6 -12 16 -28 23
-36 8 -10 9 -17 3 -21 -17 -11 -22 -82 -24 -328 -1 -130 -5 -239 -8 -242 -3
-4 -14 -4 -23 0 -14 5 -16 38 -16 314 0 170 3 316 6 325 8 20 26 15 39 -12z"/>
</g>
</svg>
