<?xml version="1.0" standalone="no"?>
<!DOCTYPE svg PUBLIC "-//W3C//DTD SVG 20010904//EN"
 "http://www.w3.org/TR/2001/REC-SVG-20010904/DTD/svg10.dtd">
<svg version="1.0" xmlns="http://www.w3.org/2000/svg"
 width="300.000000pt" height="303.000000pt" viewBox="0 0 300.000000 303.000000"
 preserveAspectRatio="xMidYMid meet">
<metadata>
Created by potrace 1.10, written by Peter Selinger 2001-2011
</metadata>
<g transform="translate(0.000000,303.000000) scale(0.100000,-0.100000)"
fill="#000000" stroke="none">
<path d="M513 2093 c4 -1004 0 -942 72 -1090 22 -45 38 -83 34 -83 -4 0 -36 7
-70 16 -48 12 -93 15 -189 11 -151 -5 -241 -30 -295 -81 -54 -51 -49 -82 36
-256 84 -172 98 -190 152 -190 31 0 46 7 73 34 37 37 44 74 22 121 -15 34 -3
43 51 37 l43 -4 -6 -37 c-3 -20 -8 -45 -12 -56 -4 -17 7 -27 63 -60 83 -48
210 -132 323 -213 113 -82 246 -147 351 -172 187 -44 454 -46 648 -5 150 31
299 106 463 232 38 29 122 84 189 124 103 62 120 75 115 93 -3 12 -9 37 -12
57 -6 36 -6 37 32 41 22 3 46 3 56 0 15 -3 15 -7 2 -38 -18 -44 -18 -69 2
-100 31 -47 100 -67 146 -43 24 13 178 329 178 366 0 41 -64 96 -145 124 -62
21 -88 24 -220 24 -100 0 -163 -4 -188 -13 -21 -8 -40 -12 -42 -10 -2 2 12 35
31 74 19 39 43 106 54 149 19 75 20 112 20 967 l0 888 -990 0 -991 0 4 -907z
m1917 828 c0 -5 -8 -12 -17 -16 -17 -6 -17 -7 0 -16 25 -14 21 -29 -8 -29 -14
0 -25 -4 -25 -10 0 -5 11 -10 25 -10 39 0 29 -18 -12 -22 -20 -2 -38 -9 -41
-16 -3 -10 6 -12 33 -10 24 2 40 -2 42 -9 3 -9 -10 -13 -46 -13 -68 0 -75 -18
-9 -22 73 -4 67 -22 -9 -26 -83 -4 -81 -22 2 -22 92 0 81 -19 -12 -22 -101 -4
-101 -22 0 -26 105 -4 90 -22 -18 -22 -46 0 -87 -4 -90 -10 -4 -6 29 -10 90
-10 73 0 96 -3 93 -12 -3 -9 -35 -14 -104 -16 -141 -4 -146 -22 -5 -22 86 0
112 -3 109 -12 -3 -9 -39 -14 -121 -16 -156 -4 -154 -22 3 -22 73 0 120 -4
120 -10 0 -6 -50 -10 -129 -10 -76 0 -132 -4 -136 -10 -6 -9 59 -14 202 -15
30 0 52 -4 50 -10 -1 -6 -55 -10 -136 -10 -97 0 -136 -4 -139 -13 -3 -9 32
-12 143 -12 113 0 146 -3 142 -12 -3 -10 -45 -13 -158 -15 -99 -1 -155 -5
-157 -12 -3 -8 47 -11 157 -11 101 0 161 -4 161 -10 0 -6 -63 -10 -169 -10
-100 0 -172 -4 -176 -10 -4 -6 58 -11 166 -12 130 -2 173 -6 177 -16 3 -10
-34 -13 -179 -12 -124 1 -185 -2 -187 -9 -3 -8 53 -11 182 -11 117 0 186 -4
186 -10 0 -6 -71 -10 -194 -10 -119 0 -197 -4 -201 -10 -4 -7 64 -10 195 -10
157 0 201 -3 198 -12 -4 -10 -56 -14 -209 -16 -115 -1 -208 -7 -213 -12 -7 -7
66 -10 208 -10 137 0 216 -4 214 -10 -2 -6 -92 -11 -222 -13 -156 -3 -221 -7
-224 -15 -3 -9 54 -12 222 -12 144 0 226 -4 226 -10 0 -9 -9 -12 -30 -12 -3 0
-33 3 -68 6 -61 7 -63 6 -94 -24 -29 -29 -33 -31 -56 -18 l-26 13 37 3 c20 2
37 7 37 13 0 12 -267 12 -275 -1 -6 -9 95 -16 149 -10 11 1 17 -3 14 -12 -3
-9 -31 -14 -96 -16 -55 -2 -92 -7 -92 -13 0 -7 31 -9 84 -7 67 2 86 0 94 -12
8 -13 -4 -15 -90 -12 -64 3 -104 0 -111 -7 -11 -11 75 -17 166 -12 28 2 37 -1
37 -13 0 -14 -17 -16 -114 -16 -71 0 -117 -4 -121 -11 -5 -7 24 -9 94 -7 67 2
101 -1 101 -8 0 -6 -15 -11 -32 -12 -186 -10 -269 -32 -120 -32 66 0 82 -3 82
-15 0 -12 -17 -15 -90 -15 -53 0 -90 -4 -90 -10 0 -6 37 -10 90 -10 53 0 90
-4 90 -10 0 -6 -40 -10 -99 -10 -135 0 -142 -18 -9 -22 141 -4 134 -22 -9 -26
-151 -4 -148 -22 3 -22 88 0 115 -3 111 -12 -3 -10 -37 -13 -127 -13 -90 0
-124 -3 -127 -12 -4 -10 26 -13 126 -13 81 0 131 -4 131 -10 0 -6 -53 -10
-139 -10 -83 0 -142 -4 -146 -10 -4 -6 45 -10 139 -10 110 0 146 -3 146 -12 0
-10 -37 -13 -154 -13 l-154 0 -7 210 c-4 116 -3 250 2 298 5 48 7 90 4 92 -2
3 -19 5 -38 5 l-33 0 0 158 c0 87 -3 161 -6 165 -4 3 -14 -3 -23 -14 -16 -19
-17 -20 -18 -2 0 10 -13 47 -28 83 -15 35 -29 85 -30 110 -1 25 -3 53 -4 63 0
10 -5 16 -10 13 -4 -3 -11 -41 -14 -85 -6 -97 -50 -210 -69 -177 -20 36 -28
-7 -28 -167 l0 -157 -32 2 -33 3 5 -105 c5 -122 5 -119 2 -357 l-2 -183 -149
0 c-89 0 -152 4 -156 10 -4 6 45 10 139 10 91 0 146 4 146 10 0 6 -25 11 -55
11 -30 1 -59 3 -65 4 -5 1 -55 3 -110 4 -59 0 -100 5 -100 11 0 6 59 10 156
10 101 0 153 3 149 10 -4 6 -72 10 -170 10 -98 0 -166 4 -170 10 -4 7 50 10
155 10 125 0 161 3 157 13 -3 9 -43 11 -165 9 -140 -2 -162 0 -162 13 0 13 23
15 156 15 101 0 153 3 149 10 -4 6 -67 10 -156 10 -128 0 -149 2 -149 16 0 13
19 15 140 12 90 -2 139 1 137 7 -2 6 -61 11 -140 13 -175 3 -185 22 -12 22 77
0 125 4 125 10 0 6 -48 10 -125 10 -104 0 -125 2 -125 15 0 12 20 15 117 15
80 0 114 3 107 10 -7 7 -116 11 -292 13 -178 1 -283 6 -285 12 -1 6 97 11 276
13 371 3 371 21 0 24 -153 2 -278 6 -278 10 0 4 106 9 235 12 129 3 247 5 263
5 15 1 27 6 27 11 0 6 -95 10 -265 10 -170 0 -265 4 -265 10 0 6 92 10 257 10
168 0 254 3 247 10 -6 6 -111 11 -254 12 -155 2 -245 7 -245 13 0 6 88 11 238
13 146 1 237 6 237 12 0 6 -90 10 -240 10 -153 0 -240 4 -240 10 0 6 82 10
226 10 176 0 225 3 222 13 -4 9 -59 13 -224 15 -120 1 -218 6 -217 10 2 4 97
8 213 10 126 1 210 6 210 12 0 6 -84 11 -210 12 -276 4 -289 22 -17 26 120 1
197 6 197 12 0 6 -76 10 -200 10 -127 0 -200 4 -200 10 0 6 71 10 192 10 136
0 189 3 181 11 -6 6 -78 11 -187 12 -235 3 -242 21 -8 25 109 1 171 6 167 12
-4 6 -76 10 -176 10 -111 0 -168 3 -164 10 4 6 69 10 161 10 107 0 155 3 152
11 -2 7 -58 11 -156 12 -202 3 -207 20 -7 27 83 3 143 8 135 12 -8 4 -76 9
-150 10 -81 2 -134 7 -132 13 1 5 32 10 70 11 172 3 193 4 187 14 -4 6 -60 10
-136 10 -84 0 -128 4 -124 10 4 6 57 10 128 10 155 0 146 18 -11 22 -147 4
-152 21 -7 28 128 6 121 18 -13 22 -120 4 -121 22 -2 26 115 4 111 22 -5 22
-46 0 -87 5 -90 10 -4 6 24 10 75 10 61 0 81 3 78 13 -3 8 -31 13 -82 15 -90
3 -95 22 -5 22 79 0 76 18 -3 22 -78 4 -82 21 -8 28 58 6 51 17 -13 22 -20 2
-37 8 -37 13 1 6 17 9 37 7 25 -2 34 0 31 10 -3 7 -21 14 -41 16 -38 3 -43 22
-6 22 10 0 19 5 19 10 0 6 -9 10 -19 10 -26 0 -37 18 -16 26 14 6 14 8 -1 25
-17 19 4 19 914 19 540 0 932 -4 932 -9z m-900 -312 c0 -10 5 -19 10 -19 6 0
10 -6 10 -12 0 -8 -14 -13 -38 -13 -40 0 -43 9 -16 51 18 26 34 23 34 -7z m32
-84 c11 -15 10 -115 -2 -115 -5 0 -17 11 -26 25 -9 14 -20 22 -25 19 -15 -9
-10 -24 9 -24 16 -1 16 -1 0 -14 -10 -7 -18 -19 -18 -25 0 -7 -5 -9 -11 -6
-14 9 -1 67 18 82 8 6 12 17 8 23 -6 9 -10 9 -16 -1 -7 -11 -9 -10 -9 4 0 10
-4 16 -9 13 -5 -3 -12 1 -15 10 -5 12 0 15 21 12 19 -2 32 -12 43 -33 10 -22
15 -26 18 -13 2 9 -5 32 -14 50 -17 32 -17 33 2 18 10 -8 22 -19 26 -25z
m-112 -41 c0 -12 7 -27 15 -32 21 -11 10 -36 -21 -51 -14 -6 -27 -11 -29 -11
-7 0 0 85 9 98 4 6 4 16 1 22 -3 6 1 7 9 4 9 -3 16 -17 16 -30z m110 -105 c0
-12 -29 -24 -37 -16 -3 4 -3 13 0 21 6 16 37 11 37 -5z m30 -19 c0 -16 -4 -30
-10 -30 -5 0 -10 14 -10 30 0 17 5 30 10 30 6 0 10 -13 10 -30z m-152 -6 c8
-17 9 -31 2 -43 -5 -11 -6 -30 -1 -48 7 -23 5 -30 -6 -30 -9 0 -13 7 -10 19 3
10 1 18 -4 18 -5 0 -9 25 -9 55 0 60 10 70 28 29z m102 -294 c0 -122 -2 -140
-16 -140 -11 0 -14 5 -10 16 3 9 6 72 6 140 0 76 4 124 10 124 6 0 10 -53 10
-140z m99 75 c-1 -21 -3 -24 -6 -10 -3 11 -12 27 -20 36 -11 14 -12 18 -1 21
18 7 28 -11 27 -47z m-272 -62 c-2 -21 -4 -6 -4 32 0 39 2 55 4 38 2 -18 2
-50 0 -70z m102 63 c15 -18 4 -64 -18 -75 -9 -5 -29 -8 -44 -8 -24 2 -27 6
-27 40 0 41 4 44 26 22 18 -17 34 -20 34 -5 0 6 -7 10 -15 10 -16 0 -20 12 -8
23 11 12 40 8 52 -7z m146 -6 c3 -11 3 -30 0 -41 -4 -12 -3 -19 1 -16 5 3 14
-1 21 -8 9 -10 6 -13 -15 -13 -35 0 -52 15 -52 45 0 22 2 24 15 13 12 -10 15
-10 15 4 0 9 -7 16 -15 16 -8 0 -15 5 -15 10 0 19 39 10 45 -10z m719 -36 c20
-8 21 -24 1 -24 -8 0 -15 -4 -15 -10 0 -5 25 -10 55 -10 30 0 55 -4 55 -10 0
-6 -50 -10 -130 -10 -71 0 -130 -4 -130 -9 0 -8 215 -26 235 -19 6 2 10 -1 10
-7 0 -6 -37 -10 -92 -9 -77 0 -93 -2 -93 -15 0 -12 -3 -12 -12 -3 -7 7 -22 12
-35 12 -14 0 -23 6 -23 15 0 8 -5 24 -12 35 -17 27 -3 36 35 23 18 -6 51 -8
77 -4 38 5 45 10 44 29 -1 23 4 26 30 16z m-834 -114 c0 -5 -5 -10 -10 -10 -7
0 -7 -6 0 -19 12 -24 13 -31 1 -31 -11 0 -21 38 -14 56 6 16 23 19 23 4z m610
-191 l0 -180 -37 3 c-43 4 -58 27 -16 25 15 -1 28 3 28 8 0 6 -12 9 -27 7 -21
-1 -28 2 -28 16 0 15 6 17 35 14 21 -3 35 0 35 7 0 6 -16 11 -35 11 -22 0 -35
5 -35 13 0 9 11 12 35 9 21 -3 35 0 35 7 0 6 -16 11 -35 11 -27 0 -35 4 -35
18 0 15 6 17 35 14 21 -3 35 0 35 7 0 6 -16 11 -35 11 -24 0 -35 5 -35 15 0
10 11 15 35 15 19 0 35 5 35 11 0 7 -14 10 -35 7 -24 -3 -35 0 -35 9 0 8 13
13 35 13 19 0 35 5 35 10 0 6 -16 10 -36 10 -28 0 -35 3 -32 18 2 12 13 17 35
17 29 0 31 2 26 27 -3 17 -1 28 6 28 8 0 11 -53 11 -181z m115 159 c11 2 62 5
114 8 75 4 92 3 89 -8 -4 -10 -37 -14 -131 -16 -171 -4 -167 -22 4 -22 100 0
130 -3 127 -12 -3 -9 -40 -14 -126 -16 -163 -4 -161 -22 3 -22 77 0 125 -4
125 -10 0 -6 -48 -10 -125 -10 -77 0 -125 -4 -125 -10 0 -5 23 -11 50 -11 28
-1 55 -3 60 -4 6 -1 39 -3 75 -4 36 0 65 -5 65 -11 0 -6 -48 -10 -125 -10 -77
0 -125 -4 -125 -10 0 -6 49 -10 126 -10 86 0 125 -3 122 -11 -2 -7 -47 -11
-122 -12 -85 -2 -120 -6 -123 -14 -4 -10 25 -13 121 -13 77 0 126 -4 126 -10
0 -6 -48 -10 -125 -10 -77 0 -125 -4 -125 -10 0 -6 46 -10 119 -10 69 0 122
-4 126 -10 4 -6 -34 -10 -107 -10 -111 0 -163 -11 -125 -26 9 -3 26 -4 38 -1
13 3 19 1 16 -6 -2 -7 -18 -13 -35 -15 -36 -4 -39 -9 -14 -28 16 -13 16 -13
-1 -14 -10 0 -19 6 -22 13 -2 6 -6 95 -10 195 l-6 184 23 -8 c13 -4 32 -7 43
-6z m-1325 -53 c0 -13 -24 -15 -159 -15 -145 0 -182 5 -164 24 3 3 78 6 165 6
134 0 158 -2 158 -15z m487 -97 c-2 -18 -4 -6 -4 27 0 33 2 48 4 33 2 -15 2
-42 0 -60z m34 17 l-9 -50 -1 60 c-1 37 2 56 9 49 5 -5 6 -29 1 -59z m38 -12
c1 -17 -3 -35 -9 -38 -6 -4 -10 17 -9 57 1 47 3 57 9 38 4 -14 8 -39 9 -57z
m81 17 c0 -33 -4 -60 -9 -60 -14 0 -18 21 -13 73 6 67 22 58 22 -13z m50 -1
c0 -37 -4 -58 -10 -54 -5 3 -10 31 -10 61 0 30 5 54 10 54 6 0 10 -27 10 -61z
m80 6 c0 -30 -4 -55 -10 -55 -5 0 -10 25 -10 55 0 30 5 55 10 55 6 0 10 -25
10 -55z m-770 28 c0 -17 -13 -18 -165 -15 -93 2 -165 7 -165 12 0 5 71 11 163
13 89 1 163 4 165 5 1 1 2 -6 2 -15z m470 -40 c0 -42 -3 -54 -11 -46 -11 11
-5 103 7 103 2 0 4 -26 4 -57z m130 7 c0 -27 -4 -50 -10 -50 -5 0 -10 23 -10
50 0 28 5 50 10 50 6 0 10 -22 10 -50z m-600 -14 c0 -14 -22 -16 -159 -16 -92
0 -162 4 -166 10 -3 5 27 10 77 12 46 2 120 4 166 6 69 3 82 1 82 -12z m0 -50
c0 -12 -27 -14 -162 -10 -218 6 -220 24 -4 24 137 0 166 -3 166 -14z m588 -23
c2 -9 -11 -13 -47 -13 -56 0 -70 16 -18 23 46 6 60 4 65 -10z m-593 -23 c-4
-6 -70 -10 -166 -10 -99 0 -159 4 -159 10 0 6 62 10 166 10 107 0 163 -3 159
-10z m645 -62 c0 -53 -3 -69 -11 -61 -10 10 -4 133 7 133 2 0 4 -32 4 -72z
m-150 -3 c0 -37 -4 -65 -10 -65 -6 0 -10 28 -10 65 0 37 4 65 10 65 6 0 10
-28 10 -65z m70 -1 c0 -41 -4 -63 -10 -59 -5 3 -10 21 -10 40 0 19 -5 37 -11
41 -8 4 -7 9 2 15 12 7 11 9 -1 10 -10 0 -8 3 5 9 11 5 21 9 23 9 1 1 2 -29 2
-65z m177 -26 c-2 -18 -4 -4 -4 32 0 36 2 50 4 33 2 -18 2 -48 0 -65z m33 57
c0 -45 12 -48 185 -43 87 2 134 -1 132 -7 -2 -6 -66 -11 -158 -13 -84 -1 -158
-7 -163 -12 -7 -7 -4 -10 7 -10 24 0 21 -17 -4 -25 -11 -4 -21 -5 -22 -3 -7
11 6 148 14 148 5 0 9 -16 9 -35z m-308 -62 l3 -51 -136 -1 c-74 -1 -143 1
-152 5 -44 16 -5 24 123 24 77 0 139 3 138 8 -1 4 3 30 7 57 10 52 12 45 17
-42z m-502 57 c0 -6 -55 -10 -146 -10 -94 0 -143 4 -139 10 4 6 63 10 146 10
86 0 139 -4 139 -10z m100 -21 c0 -10 -4 -19 -9 -19 -12 0 -23 29 -15 41 8 14
24 0 24 -22z m-130 -29 c0 -5 -54 -9 -130 -8 -71 0 -130 4 -130 9 0 5 59 9
130 9 76 0 130 -4 130 -10z m1600 0 c0 -12 -94 -12 -130 0 -17 6 -2 8 53 9 45
1 77 -3 77 -9z m-1425 -20 c4 -6 4 -18 1 -26 -4 -12 -10 -13 -26 -4 -11 6 -20
17 -20 25 0 17 36 20 45 5z m1038 -20 c23 -11 35 -12 60 -2 29 11 33 10 50
-13 24 -32 44 -32 79 2 27 26 29 26 78 14 27 -7 69 -11 92 -9 l43 3 3 -64 c2
-35 1 -70 -2 -76 -7 -20 -119 7 -155 37 -53 45 -169 45 -227 -1 -34 -27 -34
-27 -92 8 -64 38 -128 34 -185 -11 -51 -40 -63 -33 -62 38 l1 59 37 3 c24 2
49 -4 70 -16 18 -11 46 -23 62 -26 26 -6 36 -1 70 34 22 22 42 39 45 37 3 -1
18 -9 33 -17z m-1250 -5 c-2 -5 -25 -11 -53 -13 -46 -3 -60 4 -43 22 11 11 98
2 96 -9z m1142 4 c4 -6 5 -13 2 -15 -8 -9 -97 7 -97 17 0 13 87 11 95 -2z
m-1055 -9 c0 -8 -70 -50 -85 -50 -11 0 -4 24 12 42 17 19 73 25 73 8z m510
-29 c0 -5 15 -5 34 -1 l35 8 6 -53 c4 -30 4 -58 0 -64 -13 -23 -25 -9 -25 29
0 25 -5 40 -12 40 -9 0 -8 3 2 10 12 8 12 10 -3 16 -9 3 -24 1 -32 -6 -8 -7
-15 -10 -15 -7 0 3 -3 12 -6 21 -3 9 -1 16 5 16 6 0 11 -4 11 -9z m149 -58
l-1 -68 -9 55 c-8 52 -6 80 6 80 3 0 4 -30 4 -67z m65 15 c6 -4 30 -8 54 -8
23 0 42 -4 42 -10 0 -6 -27 -10 -60 -10 l-60 0 1 43 c1 27 3 33 6 17 3 -14 10
-28 17 -32z m74 42 c42 0 17 -23 -26 -24 -35 -1 -42 2 -42 18 0 14 5 17 23 12
12 -3 33 -6 45 -6z m-1010 -12 c-2 -6 -21 -11 -41 -10 -55 1 -57 1 -57 12 0 6
23 10 51 10 34 0 49 -4 47 -12z m347 -9 c5 -5 -6 -9 -27 -9 -44 0 -70 9 -62
21 6 11 74 1 89 -12z m335 11 c0 -6 -48 -10 -125 -10 -77 0 -125 4 -125 10 0
6 48 10 125 10 77 0 125 -4 125 -10z m-190 -85 l25 -27 -50 5 c-27 3 -51 6
-51 6 -1 1 -2 17 -2 36 0 34 0 34 27 21 14 -8 37 -26 51 -41z m-505 35 c-3 -5
-24 -10 -46 -10 -21 0 -39 5 -39 10 0 6 21 10 46 10 27 0 43 -4 39 -10z m361
-3 c4 -4 13 -2 21 4 10 9 13 6 13 -15 0 -21 -4 -26 -17 -22 -10 3 -37 10 -60
16 -23 6 -45 15 -48 20 -6 10 81 8 91 -3z m304 3 c0 -6 -32 -10 -75 -10 -43 0
-75 4 -75 10 0 6 32 10 75 10 43 0 75 -4 75 -10z m881 -16 c14 -12 22 -13 38
-4 12 6 21 9 22 8 0 -2 2 -12 4 -22 4 -23 23 -36 42 -29 10 4 11 -2 7 -25 -5
-24 -2 -32 15 -42 20 -10 20 -13 7 -32 -11 -16 -12 -26 -5 -40 6 -11 9 -20 7
-21 -35 -18 -43 -27 -40 -51 3 -25 1 -26 -18 -16 -24 13 -50 -1 -50 -26 0 -17
-5 -17 -30 -2 -16 10 -24 10 -42 -1 -20 -12 -24 -11 -36 8 -8 11 -25 21 -38
21 -15 0 -24 6 -24 15 0 8 -9 24 -21 36 -16 16 -18 23 -8 35 9 11 8 18 -5 33
-15 16 -15 19 -1 31 8 7 15 28 15 46 0 27 4 34 20 34 12 0 24 9 29 23 8 19 15
23 39 19 16 -2 33 1 36 7 10 15 16 14 37 -5z m-1331 -19 c245 -68 235 -67 402
-63 99 3 162 9 171 16 18 15 307 2 307 -13 0 -6 -54 -11 -136 -13 -97 -2 -134
-6 -132 -14 3 -8 38 -11 116 -9 61 1 117 -1 123 -4 24 -16 -19 -25 -116 -25
-68 0 -95 -3 -85 -10 8 -5 64 -10 123 -10 70 0 106 -4 102 -10 -3 -5 -40 -10
-81 -10 -41 0 -74 -4 -74 -9 0 -16 30 -21 116 -21 49 0 84 -4 84 -10 0 -6 -29
-10 -67 -10 -106 0 -62 -19 50 -22 111 -2 133 -18 25 -18 -58 0 -69 -2 -59
-12 9 -10 61 -13 188 -13 132 0 177 -3 180 -12 4 -10 -30 -13 -147 -13 -136 0
-151 -2 -140 -15 11 -13 51 -15 286 -13 214 2 274 0 274 -9 0 -10 -56 -13
-247 -13 -220 -1 -246 -2 -229 -15 16 -12 62 -15 244 -15 146 0 221 -3 217
-10 -4 -6 -82 -10 -203 -10 -138 0 -193 -3 -185 -11 6 -6 78 -11 187 -12 219
-2 242 -21 31 -25 -185 -3 -187 -22 -4 -22 100 0 130 -3 127 -12 -3 -9 -34
-14 -97 -16 -110 -3 -115 -22 -5 -22 82 0 102 -17 27 -22 -47 -3 -48 -4 -20
-16 36 -15 28 -31 -49 -101 -118 -108 -229 -168 -483 -263 -75 -28 -147 -56
-161 -63 -23 -12 -44 -5 -220 64 -297 118 -364 155 -488 275 l-73 70 23 18 23
18 -37 0 c-21 0 -38 5 -38 10 0 6 28 10 63 10 34 0 69 5 77 10 17 11 22 10
-89 13 -57 1 -86 6 -88 15 -4 9 25 12 122 12 119 0 127 1 148 23 12 13 35 27
50 31 15 4 25 11 22 15 -3 5 12 15 32 21 62 20 61 30 -2 30 -47 1 -56 3 -42
11 10 6 29 8 42 5 36 -9 114 10 136 33 11 11 25 21 32 21 7 0 22 7 33 15 18
15 18 15 -11 13 -16 -2 -30 2 -30 7 0 6 20 9 46 7 37 -3 51 1 76 22 17 14 36
26 42 26 6 0 8 7 5 15 -4 10 0 15 12 15 24 0 94 32 94 43 0 5 -12 7 -27 3 -16
-3 -57 -11 -93 -17 -36 -6 -73 -15 -83 -20 -10 -5 -23 -7 -28 -3 -6 3 -21 2
-32 -4 -19 -9 -81 -21 -192 -37 -16 -2 -55 -9 -85 -16 -82 -19 -150 -16 -167
6 -7 11 -13 29 -13 41 0 19 -34 130 -55 178 -8 18 -5 19 46 13 30 -4 79 -14
109 -22z m753 5 c84 0 91 -18 9 -22 -71 -3 -72 -3 -71 22 0 14 3 19 6 13 3 -8
24 -13 56 -13z m311 4 c3 -8 17 -14 31 -14 20 0 25 -5 25 -25 0 -13 8 -28 18
-34 15 -8 15 -13 4 -31 -7 -12 -10 -29 -7 -39 3 -11 -3 -25 -15 -36 -11 -10
-20 -24 -20 -32 0 -7 -9 -13 -20 -13 -26 0 -25 3 10 38 42 42 42 101 1 143
-25 24 -38 29 -79 29 -44 0 -54 -4 -76 -31 -58 -69 -15 -169 74 -169 38 0 40
-1 30 -21 -11 -19 -13 -20 -30 -4 -11 10 -26 14 -42 10 -20 -5 -26 -2 -31 15
-3 12 -15 24 -27 27 -15 4 -19 11 -14 25 3 10 0 26 -7 34 -9 11 -9 18 -1 26 7
7 12 25 12 40 0 18 5 28 15 28 8 0 21 10 29 23 12 17 25 22 65 23 34 2 51 -2
55 -12z m-1274 -19 c11 -13 6 -15 -39 -15 -47 0 -61 7 -44 23 12 13 71 7 83
-8z m1283 -25 c29 -23 43 -80 27 -110 -13 -24 -61 -50 -92 -50 -13 0 -36 11
-52 23 -25 20 -29 30 -28 68 1 34 8 49 27 67 33 28 84 29 118 2z m-1250 -25
c2 -11 -87 -20 -110 -11 -8 3 -11 11 -8 16 8 14 114 9 118 -5z m1732 0 c0 -12
-70 -19 -93 -10 -14 5 -14 7 -2 16 19 12 95 7 95 -6z m-1711 -44 c3 -5 -11
-11 -32 -13 -48 -6 -113 2 -106 13 7 12 131 12 138 0z m1714 -3 c-7 -19 -43
-21 -58 -3 -11 13 -8 15 25 15 25 0 35 -4 33 -12z m-1703 -48 c4 -6 -15 -11
-49 -12 -31 -1 -63 -2 -73 -2 -9 -1 -18 5 -20 12 -6 15 132 17 142 2z m1692
-2 c-5 -15 -55 -14 -71 2 -7 7 3 10 33 10 30 0 41 -4 38 -12z m-1687 -48 c0
-6 -30 -10 -69 -10 -39 0 -73 5 -76 10 -4 6 22 10 69 10 44 0 76 -4 76 -10z
m1685 0 c-3 -5 -25 -10 -48 -10 -31 0 -38 3 -27 10 20 13 83 13 75 0z m-1715
-40 c11 -7 -3 -10 -47 -10 -36 0 -63 4 -63 10 0 13 90 13 110 0z m390 6 c0
-22 -14 -32 -40 -28 -17 2 -37 -1 -45 -8 -17 -14 -42 -3 -26 13 13 13 111 33
111 23z m950 -6 c0 -6 -29 -10 -66 -10 -41 0 -63 4 -59 10 3 6 33 10 66 10 33
0 59 -4 59 -10z m370 0 c0 -5 -20 -10 -45 -10 -25 0 -45 5 -45 10 0 6 20 10
45 10 25 0 45 -4 45 -10z m-1690 -42 c0 -5 12 -8 28 -8 19 0 23 -3 13 -9 -7
-5 -41 -7 -75 -4 -72 5 -89 10 -82 21 6 10 116 10 116 0z m1678 -5 c3 -10 -16
-13 -72 -13 -62 0 -76 3 -76 15 0 13 12 15 72 13 46 -2 73 -7 76 -15z m-1438
-13 c12 -8 12 -10 -3 -16 -22 -8 -50 3 -42 16 8 12 25 13 45 0z m110 0 c0 -5
-13 -10 -30 -10 -16 0 -30 5 -30 10 0 6 14 10 30 10 17 0 30 -4 30 -10z m-363
-37 c17 -3 46 0 64 6 36 12 61 4 33 -12 -17 -10 -173 -11 -182 -2 -11 11 13
26 32 20 11 -3 35 -8 53 -12z m247 3 c13 3 27 1 31 -6 5 -8 -7 -10 -41 -8 -29
2 -49 8 -52 16 -3 11 0 12 17 3 11 -6 31 -9 45 -5z m-164 -53 c0 -15 -145 -19
-154 -4 -9 14 0 16 78 16 55 0 76 -3 76 -12z m80 -42 c0 -16 -30 -21 -121 -21
-72 0 -89 3 -89 15 0 12 18 15 105 15 58 0 105 -4 105 -9z m-183 -130 c-25 -8
-57 -45 -57 -68 0 -18 -6 -23 -24 -23 -37 0 -41 18 -9 48 15 15 36 43 46 62
l19 34 18 -24 c13 -17 15 -26 7 -29z m1679 17 c9 -18 28 -45 42 -61 19 -19 23
-30 15 -38 -17 -17 -48 -6 -51 18 -2 12 -17 34 -33 47 -25 22 -28 29 -19 46
15 28 27 25 46 -12z m-1792 2 l38 -12 -50 -34 c-28 -19 -57 -34 -65 -34 -7 0
-14 -6 -14 -12 0 -7 -4 -29 -8 -48 -4 -19 -8 -39 -9 -45 -1 -5 -4 -14 -7 -20
-4 -5 -5 -18 -4 -27 3 -15 -5 -18 -43 -18 -26 0 -56 -3 -68 -6 -17 -4 -23 2
-34 35 -7 23 -17 41 -22 41 -5 0 -6 5 -3 10 3 6 1 10 -5 10 -6 0 -9 4 -5 9 3
5 1 12 -5 16 -6 4 -8 11 -5 16 4 5 1 9 -5 9 -7 0 -10 7 -6 15 3 8 1 15 -5 15
-6 0 -7 5 -4 10 3 6 -1 10 -9 10 -9 0 -13 6 -10 15 5 12 -1 12 -43 -2 -63 -21
-103 -50 -103 -74 0 -10 -4 -19 -10 -19 -12 0 -14 33 -3 44 4 4 8 15 8 24 0
22 76 63 145 79 66 15 296 10 354 -7z m2267 -8 c51 -20 117 -72 92 -72 -6 0
-16 7 -23 15 -7 9 -15 13 -17 11 -3 -3 10 -18 28 -34 19 -17 29 -34 25 -40
-11 -18 -26 -14 -26 6 0 26 -29 50 -89 72 -42 15 -51 16 -51 4 0 -8 -7 -14
-16 -14 -8 0 -12 -4 -9 -10 3 -5 2 -10 -4 -10 -6 0 -8 -7 -5 -15 4 -8 1 -15
-5 -15 -6 0 -8 -6 -5 -14 3 -7 -1 -20 -8 -27 -7 -8 -15 -23 -16 -34 -2 -11 -8
-23 -14 -26 -5 -3 -9 -9 -8 -13 4 -24 -18 -33 -77 -28 -61 4 -61 4 -69 41 -4
20 -8 43 -9 51 -1 8 -6 26 -10 40 -5 14 -8 31 -7 37 2 8 -3 10 -12 7 -14 -5
-62 22 -94 53 -29 28 59 43 233 39 116 -2 150 -6 196 -24z m-1970 -227 c84
-62 222 -130 394 -195 146 -54 215 -88 215 -102 0 -12 -108 0 -209 23 -107 25
-184 62 -302 145 -52 37 -140 98 -196 136 l-103 68 0 56 0 56 68 -70 c38 -38
98 -91 133 -117z m1468 117 c1 -28 -6 -37 -46 -65 -25 -17 -112 -79 -192 -135
-213 -152 -301 -190 -481 -212 -102 -12 -100 -12 -100 -1 0 11 110 60 235 106
230 84 400 186 512 310 62 68 71 67 72 -3z m-2162 31 c-4 -3 -2 -12 4 -19 8
-9 5 -18 -10 -33 -27 -27 -37 -26 -52 1 -10 18 -8 24 11 40 20 16 62 27 47 11z
m2688 -5 c14 -6 25 -17 25 -24 0 -23 -12 -44 -26 -44 -19 0 -46 44 -38 64 7
19 6 19 39 4z m-2584 -153 c27 -61 49 -119 49 -131 0 -22 -33 -57 -64 -68 -33
-12 -65 22 -116 124 -28 55 -50 104 -50 109 0 6 18 15 40 21 22 6 48 22 57 35
10 13 22 23 27 22 4 -2 30 -52 57 -112z m315 91 c58 -27 207 -124 339 -220
193 -141 293 -176 526 -183 247 -8 386 30 564 153 242 169 348 237 395 255 29
11 54 18 57 15 2 -2 15 -48 27 -103 13 -54 26 -108 30 -120 6 -20 -2 -28 -69
-70 -43 -27 -139 -90 -214 -142 -75 -51 -165 -110 -200 -132 -265 -160 -763
-171 -1053 -22 -48 24 -136 79 -195 120 -59 42 -157 108 -218 146 -60 38 -112
72 -114 74 -9 7 53 253 63 253 6 0 34 -11 62 -24z m2214 -6 c19 -21 38 -30 58
-30 17 0 33 -4 36 -8 3 -5 -19 -59 -49 -120 -41 -86 -60 -114 -80 -122 -34
-13 -82 11 -95 46 -10 26 -11 23 72 217 11 26 23 47 25 47 3 0 18 -13 33 -30z"/>
<path d="M2108 1424 c-61 -33 -79 -138 -32 -193 54 -65 144 -63 204 5 48 55
37 133 -26 183 -32 25 -105 28 -146 5z m155 -34 c32 -35 37 -101 11 -138 -49
-70 -161 -66 -199 8 -19 37 -19 64 2 107 33 69 133 82 186 23z"/>
<path d="M2167 1414 c-14 -15 -6 -34 14 -34 14 0 19 5 17 17 -3 18 -20 27 -31
17z"/>
<path d="M2100 1370 c0 -15 5 -20 18 -18 9 2 17 10 17 18 0 8 -8 16 -17 18
-13 2 -18 -3 -18 -18z"/>
<path d="M2227 1384 c-14 -14 -7 -35 11 -32 9 2 17 10 17 17 0 16 -18 25 -28
15z"/>
<path d="M2152 1348 c-7 -7 -12 -22 -12 -35 0 -27 42 -42 65 -23 28 23 11 70
-25 70 -9 0 -21 -5 -28 -12z m46 -31 c2 -12 -3 -17 -17 -17 -12 0 -21 6 -21
13 0 31 32 34 38 4z"/>
<path d="M2083 1329 c-14 -14 -6 -39 12 -39 18 0 26 27 11 39 -9 7 -16 7 -23
0z"/>
<path d="M2242 1313 c2 -10 10 -18 18 -18 8 0 16 8 18 18 2 12 -3 17 -18 17
-15 0 -20 -5 -18 -17z"/>
<path d="M2103 1264 c-8 -21 13 -42 28 -27 13 13 5 43 -11 43 -6 0 -13 -7 -17
-16z"/>
<path d="M2224 1265 c-9 -22 5 -38 22 -24 18 15 18 25 -1 33 -9 3 -18 -1 -21
-9z"/>
<path d="M2162 1233 c2 -10 10 -18 18 -18 8 0 16 8 18 18 2 12 -3 17 -18 17
-15 0 -20 -5 -18 -17z"/>
<path d="M779 1379 c-9 -17 -8 -25 4 -37 29 -28 73 12 47 43 -17 21 -37 19
-51 -6z"/>
<path d="M1234 1070 c-34 -11 -66 -26 -72 -32 -6 -7 -20 -83 -31 -168 -12 -85
-24 -172 -27 -192 -6 -38 -5 -38 28 -37 18 0 89 6 158 13 l125 13 21 -25 21
-25 208 6 c115 4 213 11 219 17 9 9 -57 369 -75 401 -12 24 -118 41 -240 39
-57 -1 -142 1 -189 4 -69 5 -97 2 -146 -14z m227 -17 c9 -9 9 -54 3 -170 l-9
-158 -120 -6 c-66 -3 -135 -12 -153 -19 -18 -7 -35 -11 -37 -9 -7 8 47 325 58
336 37 36 228 56 258 26z m271 -8 c26 -4 51 -11 55 -18 10 -17 61 -315 55
-322 -8 -7 -217 -6 -292 2 l-62 6 7 161 c4 89 9 163 12 166 7 8 105 17 143 14
19 -2 56 -6 82 -9z m-378 -344 c3 -5 -27 -12 -67 -16 -39 -3 -81 -9 -92 -12
-15 -4 -17 -2 -9 6 5 6 37 15 70 20 83 12 92 12 98 2z m489 -36 c-2 -6 -74
-11 -183 -13 -157 -2 -180 0 -180 13 0 13 23 15 183 13 115 -2 181 -7 180 -13z"/>
<path d="M1537 1013 c-8 -14 5 -83 14 -77 12 7 12 84 0 84 -6 0 -12 -3 -14 -7z"/>
<path d="M1587 1014 c-4 -4 -7 -22 -7 -40 0 -28 5 -35 26 -40 35 -9 47 6 37
47 -9 33 -38 50 -56 33z"/>
<path d="M1664 1009 c-4 -7 4 -20 17 -31 l24 -19 -24 6 c-17 5 -22 4 -19 -6 3
-8 14 -15 26 -17 30 -5 41 26 17 44 -10 8 -13 14 -7 14 7 0 12 5 12 10 0 14
-37 13 -46 -1z"/>
<path d="M1730 994 c0 -8 4 -12 10 -9 6 4 7 -6 3 -26 -5 -24 -3 -31 8 -27 14
5 31 63 21 73 -12 11 -42 4 -42 -11z"/>
<path d="M1853 1352 c-3 -11 -13 -22 -24 -25 -10 -3 -19 -10 -19 -16 0 -12 89
-4 105 11 14 13 -8 42 -34 46 -16 3 -24 -3 -28 -16z"/>
<path d="M145 866 c-16 -8 -39 -22 -50 -31 -16 -13 -13 -13 15 2 19 11 46 24
60 31 14 6 21 11 15 11 -5 0 -23 -6 -40 -13z"/>
<path d="M610 615 c0 -8 14 -21 30 -30 17 -9 30 -18 30 -21 0 -3 -13 -3 -30 1
-41 9 -38 -8 5 -28 35 -17 47 -37 21 -37 -7 0 -25 9 -39 20 -49 39 -60 23 -25
-36 19 -33 23 -35 34 -19 7 9 18 14 23 10 33 -20 67 25 39 53 -7 7 -8 12 -2
12 6 0 19 -9 29 -20 17 -19 17 -21 -8 -54 -21 -27 -24 -36 -14 -44 10 -8 20
-2 41 24 36 45 56 33 20 -13 -20 -27 -24 -37 -14 -46 11 -12 13 -10 53 45 11
15 17 14 75 -20 58 -34 76 -52 52 -52 -6 0 -20 9 -32 20 -30 28 -84 27 -93 -1
-9 -27 26 -65 51 -55 16 6 16 8 -1 26 -18 19 -17 20 3 20 12 0 22 -5 22 -11 0
-5 17 -18 38 -27 l37 -17 -32 -3 c-40 -4 -43 -19 -6 -33 49 -18 93 17 61 49
-25 25 2 21 83 -12 78 -31 103 -53 72 -64 -7 -2 -13 3 -13 11 0 17 -50 40 -77
35 -10 -2 -19 -13 -21 -26 -4 -25 28 -42 79 -42 16 0 29 -5 29 -11 0 -8 -14
-9 -44 -5 -52 8 -68 -6 -39 -36 21 -21 111 -40 100 -21 -4 6 -23 14 -42 17
-20 4 -33 11 -30 16 3 5 19 5 37 0 38 -11 45 -8 53 30 4 16 11 33 16 36 15 9
139 -16 139 -28 0 -10 -50 -6 -107 9 -17 4 -23 1 -23 -11 0 -9 4 -16 9 -16 5
0 11 -13 15 -30 4 -22 11 -30 27 -30 18 0 20 4 15 25 -7 28 10 33 46 14 15 -8
18 -17 14 -35 -5 -19 -2 -24 13 -24 22 0 31 19 31 67 0 30 3 34 22 31 14 -2
24 -13 29 -31 11 -42 28 -57 65 -57 18 0 36 -5 39 -10 10 -17 35 -11 35 8 0
23 19 42 43 42 15 0 18 -5 13 -24 -7 -28 11 -46 25 -25 5 8 8 28 7 44 -3 28
-6 30 -46 33 -54 4 -45 22 11 22 23 1 78 9 122 20 44 10 81 17 83 15 11 -11
-13 -25 -41 -25 -63 0 -103 -56 -58 -80 30 -15 71 -13 71 5 0 9 -9 15 -25 15
-16 0 -25 6 -25 15 0 11 11 15 39 15 22 0 44 6 51 15 14 16 40 20 40 6 0 -5
-7 -14 -15 -21 -19 -16 -19 -30 -1 -30 21 0 46 28 46 50 0 11 -12 26 -27 34
l-28 14 28 11 c29 11 47 7 47 -10 0 -5 7 -26 15 -46 12 -29 18 -33 29 -24 12
10 12 18 -2 52 -13 33 -13 45 -4 60 19 30 -10 35 -66 11 -122 -52 -183 -65
-339 -70 -94 -3 -177 0 -220 7 -129 23 -307 92 -421 164 -34 22 -41 31 -34 45
13 24 5 38 -34 63 -26 16 -43 19 -69 15 -20 -4 -36 -2 -40 5 -8 13 -95 69
-107 69 -4 0 -8 -7 -8 -15z m210 -100 c7 -9 10 -18 7 -21 -9 -9 -48 16 -42 27
9 13 21 11 35 -6z m698 -317 c-2 -18 -11 -24 -35 -26 -30 -3 -33 -1 -33 22 0
23 4 26 36 26 31 0 35 -3 32 -22z"/>
<path d="M2278 564 c-75 -56 -89 -64 -106 -53 -46 29 -152 -30 -152 -84 0 -14
-4 -29 -10 -32 -18 -11 -11 -35 10 -35 13 0 27 -14 40 -40 11 -22 25 -40 30
-40 20 0 20 22 1 54 -12 18 -21 38 -21 44 0 6 23 25 52 42 49 30 52 31 65 14
7 -10 13 -23 13 -29 0 -15 -33 -45 -48 -45 -20 0 -13 28 8 35 25 8 26 25 2 25
-27 0 -54 -34 -50 -62 5 -34 50 -37 82 -5 14 14 27 23 30 20 3 -3 12 -3 21 1
14 5 13 10 -8 38 -39 53 -39 55 -7 78 l31 22 -7 -26 c-4 -16 -2 -26 5 -26 6 0
11 -9 11 -20 0 -29 41 -26 70 5 13 14 29 25 36 25 25 0 23 18 -8 59 -38 53
-27 69 14 19 28 -35 58 -50 58 -29 0 5 -11 23 -26 40 -14 17 -24 38 -22 48 6
34 -28 22 -114 -43z m62 -47 c13 -23 13 -28 -4 -46 -24 -27 -39 -27 -31 -1 5
15 3 18 -9 14 -9 -3 -16 -1 -16 5 0 6 5 11 11 11 6 0 8 7 5 16 -16 41 21 42
44 1z m-190 -39 c0 -13 -70 -58 -89 -58 -18 0 -12 20 14 45 25 26 75 34 75 13z"/>
</g>
</svg>
